<svg data-v-29081953="" xmlns="http://www.w3.org/2000/svg" viewBox="0 0 300 300"><!----><defs data-v-29081953=""><!----></defs><rect data-v-29081953="" fill="#111F51" x="0" y="0" width="300px" height="300px" class="logo-background-square"></rect><defs data-v-29081953=""><!----></defs><g data-v-29081953="" id="7de5656a-e208-4d61-ac11-3a1103f6cd70" fill="#19CEDA" transform="matrix(1.7190576655188963,0,0,1.7190576655188963,104.78628067935252,125.92091762103496)"><path d="M5.01 13.23L5.01 13.23Q3.01 13.23 1.87 12.26L1.87 12.26L1.87 12.26Q0.73 11.30 0.66 9.44L0.66 9.44L0.66 9.44Q0.64 9.06 0.64 8.20L0.64 8.20L0.64 8.20Q0.64 7.34 0.66 6.94L0.66 6.94L0.66 6.94Q0.73 5.12 1.88 4.14L1.88 4.14L1.88 4.14Q3.04 3.15 5.01 3.15L5.01 3.15L5.01 3.15Q6.26 3.15 7.25 3.56L7.25 3.56L7.25 3.56Q8.23 3.96 8.81 4.73L8.81 4.73L8.81 4.73Q9.38 5.50 9.41 6.55L9.41 6.55L9.41 6.55Q9.41 6.68 9.32 6.76L9.32 6.76L9.32 6.76Q9.23 6.85 9.10 6.85L9.10 6.85L7.11 6.85L7.11 6.85Q6.92 6.85 6.83 6.77L6.83 6.77L6.83 6.77Q6.73 6.69 6.66 6.48L6.66 6.48L6.66 6.48Q6.47 5.80 6.07 5.52L6.07 5.52L6.07 5.52Q5.67 5.25 5.01 5.25L5.01 5.25L5.01 5.25Q3.43 5.25 3.37 7.01L3.37 7.01L3.37 7.01Q3.36 7.39 3.36 8.18L3.36 8.18L3.36 8.18Q3.36 8.96 3.37 9.37L3.37 9.37L3.37 9.37Q3.43 11.13 5.01 11.13L5.01 11.13L5.01 11.13Q5.66 11.13 6.07 10.85L6.07 10.85L6.07 10.85Q6.48 10.57 6.66 9.90L6.66 9.90L6.66 9.90Q6.72 9.69 6.82 9.61L6.82 9.61L6.82 9.61Q6.92 9.53 7.11 9.53L7.11 9.53L9.10 9.53L9.10 9.53Q9.23 9.53 9.32 9.62L9.32 9.62L9.32 9.62Q9.41 9.70 9.41 9.83L9.41 9.83L9.41 9.83Q9.38 10.88 8.81 11.65L8.81 11.65L8.81 11.65Q8.23 12.42 7.25 12.82L7.25 12.82L7.25 12.82Q6.26 13.23 5.01 13.23L5.01 13.23ZM14.18 13.23L14.18 13.23Q12.42 13.23 11.47 12.41L11.47 12.41L11.47 12.41Q10.53 11.59 10.44 10.08L10.44 10.08L10.44 10.08Q10.43 9.90 10.43 9.45L10.43 9.45L10.43 9.45Q10.43 9.00 10.44 8.82L10.44 8.82L10.44 8.82Q10.53 7.34 11.50 6.50L11.50 6.50L11.50 6.50Q12.47 5.67 14.18 5.67L14.18 5.67L14.18 5.67Q15.89 5.67 16.86 6.50L16.86 6.50L16.86 6.50Q17.84 7.34 17.92 8.82L17.92 8.82L17.92 8.82Q17.95 9.18 17.95 9.45L17.95 9.45L17.95 9.45Q17.95 9.72 17.92 10.08L17.92 10.08L17.92 10.08Q17.84 11.59 16.89 12.41L16.89 12.41L16.89 12.41Q15.95 13.23 14.18 13.23L14.18 13.23ZM14.18 11.47L14.18 11.47Q14.76 11.47 15.04 11.11L15.04 11.11L15.04 11.11Q15.32 10.75 15.36 10.01L15.36 10.01L15.36 10.01Q15.37 9.87 15.37 9.45L15.37 9.45L15.37 9.45Q15.37 9.03 15.36 8.89L15.36 8.89L15.36 8.89Q15.32 8.16 15.04 7.80L15.04 7.80L15.04 7.80Q14.76 7.43 14.18 7.43L14.18 7.43L14.18 7.43Q13.61 7.43 13.33 7.80L13.33 7.80L13.33 7.80Q13.05 8.16 13.01 8.89L13.01 8.89L12.99 9.45L13.01 10.01L13.01 10.01Q13.05 10.75 13.33 11.11L13.33 11.11L13.33 11.11Q13.61 11.47 14.18 11.47L14.18 11.47ZM21.48 13.23L21.48 13.23Q20.73 13.23 20.13 12.94L20.13 12.94L20.13 12.94Q19.52 12.66 19.17 12.15L19.17 12.15L19.17 12.15Q18.83 11.65 18.83 11.05L18.83 11.05L18.83 11.05Q18.83 10.09 19.62 9.50L19.62 9.50L19.62 9.50Q20.41 8.90 21.80 8.68L21.80 8.68L23.53 8.41L23.53 8.25L23.53 8.25Q23.53 7.73 23.32 7.49L23.32 7.49L23.32 7.49Q23.11 7.25 22.61 7.25L22.61 7.25L22.61 7.25Q22.33 7.25 22.14 7.35L22.14 7.35L22.14 7.35Q21.95 7.45 21.71 7.64L21.71 7.64L21.71 7.64Q21.53 7.80 21.39 7.87L21.39 7.87L21.39 7.87Q21.34 7.97 21.25 7.97L21.25 7.97L19.63 7.97L19.63 7.97Q19.49 7.97 19.40 7.88L19.40 7.88L19.40 7.88Q19.31 7.78 19.32 7.66L19.32 7.66L19.32 7.66Q19.33 7.28 19.70 6.81L19.70 6.81L19.70 6.81Q20.06 6.34 20.80 6.01L20.80 6.01L20.80 6.01Q21.55 5.67 22.64 5.67L22.64 5.67L22.64 5.67Q24.37 5.67 25.21 6.43L25.21 6.43L25.21 6.43Q26.05 7.20 26.05 8.50L26.05 8.50L26.05 12.74L26.05 12.74Q26.05 12.88 25.96 12.98L25.96 12.98L25.96 12.98Q25.86 13.09 25.70 13.09L25.70 13.09L23.98 13.09L23.98 13.09Q23.84 13.09 23.74 12.98L23.74 12.98L23.74 12.98Q23.63 12.88 23.63 12.74L23.63 12.74L23.63 12.25L23.63 12.25Q23.32 12.68 22.78 12.96L22.78 12.96L22.78 12.96Q22.23 13.23 21.48 13.23L21.48 13.23ZM22.18 11.58L22.18 11.58Q22.79 11.58 23.18 11.17L23.18 11.17L23.18 11.17Q23.56 10.77 23.56 10.00L23.56 10.00L23.56 9.83L22.40 10.02L22.40 10.02Q21.22 10.25 21.22 10.86L21.22 10.86L21.22 10.86Q21.22 11.19 21.50 11.38L21.50 11.38L21.50 11.38Q21.77 11.58 22.18 11.58L22.18 11.58ZM30.97 13.23L30.97 13.23Q29.37 13.23 28.39 12.38L28.39 12.38L28.39 12.38Q27.40 11.54 27.33 10.02L27.33 10.02L27.31 9.46L27.33 8.89L27.33 8.89Q27.38 7.38 28.38 6.52L28.38 6.52L28.38 6.52Q29.37 5.67 30.97 5.67L30.97 5.67L30.97 5.67Q32.19 5.67 33.01 6.10L33.01 6.10L33.01 6.10Q33.84 6.54 34.24 7.13L34.24 7.13L34.24 7.13Q34.65 7.73 34.68 8.22L34.68 8.22L34.68 8.22Q34.69 8.37 34.58 8.48L34.58 8.48L34.58 8.48Q34.47 8.58 34.31 8.58L34.31 8.58L32.44 8.58L32.44 8.58Q32.28 8.58 32.20 8.51L32.20 8.51L32.20 8.51Q32.12 8.44 32.05 8.29L32.05 8.29L32.05 8.29Q31.89 7.90 31.65 7.71L31.65 7.71L31.65 7.71Q31.40 7.53 31.02 7.53L31.02 7.53L31.02 7.53Q29.95 7.53 29.90 8.96L29.90 8.96L29.89 9.49L29.90 9.95L29.90 9.95Q29.92 10.68 30.20 11.03L30.20 11.03L30.20 11.03Q30.48 11.37 31.02 11.37L31.02 11.37L31.02 11.37Q31.43 11.37 31.66 11.19L31.66 11.19L31.66 11.19Q31.89 11.02 32.05 10.61L32.05 10.61L32.05 10.61Q32.12 10.46 32.20 10.39L32.20 10.39L32.20 10.39Q32.28 10.32 32.44 10.32L32.44 10.32L34.31 10.32L34.31 10.32Q34.45 10.32 34.57 10.42L34.57 10.42L34.57 10.42Q34.68 10.51 34.68 10.65L34.68 10.65L34.68 10.65Q34.68 11.09 34.29 11.70L34.29 11.70L34.29 11.70Q33.91 12.31 33.07 12.77L33.07 12.77L33.07 12.77Q32.23 13.23 30.97 13.23L30.97 13.23ZM36.25 13.09L36.25 13.09Q36.09 13.09 35.99 12.99L35.99 12.99L35.99 12.99Q35.88 12.89 35.88 12.74L35.88 12.74L35.88 3.50L35.88 3.50Q35.88 3.35 35.99 3.25L35.99 3.25L35.99 3.25Q36.09 3.15 36.25 3.15L36.25 3.15L38.14 3.15L38.14 3.15Q38.29 3.15 38.40 3.25L38.40 3.25L38.40 3.25Q38.50 3.35 38.50 3.50L38.50 3.50L38.50 6.62L38.50 6.62Q39.31 5.67 40.70 5.67L40.70 5.67L40.70 5.67Q41.50 5.67 42.14 6.03L42.14 6.03L42.14 6.03Q42.78 6.40 43.15 7.11L43.15 7.11L43.15 7.11Q43.51 7.83 43.51 8.83L43.51 8.83L43.51 12.74L43.51 12.74Q43.51 12.89 43.41 12.99L43.41 12.99L43.41 12.99Q43.30 13.09 43.15 13.09L43.15 13.09L41.24 13.09L41.24 13.09Q41.10 13.09 41.00 12.98L41.00 12.98L41.00 12.98Q40.89 12.88 40.89 12.74L40.89 12.74L40.89 8.92L40.89 8.92Q40.89 8.30 40.59 7.96L40.59 7.96L40.59 7.96Q40.28 7.62 39.70 7.62L39.70 7.62L39.70 7.62Q39.14 7.62 38.82 7.96L38.82 7.96L38.82 7.96Q38.50 8.30 38.50 8.92L38.50 8.92L38.50 12.74L38.50 12.74Q38.50 12.89 38.40 12.99L38.40 12.99L38.40 12.99Q38.29 13.09 38.14 13.09L38.14 13.09L36.25 13.09ZM52.19 13.23L52.19 13.23Q50.19 13.23 49.05 12.26L49.05 12.26L49.05 12.26Q47.91 11.30 47.84 9.44L47.84 9.44L47.84 9.44Q47.82 9.06 47.82 8.20L47.82 8.20L47.82 8.20Q47.82 7.34 47.84 6.94L47.84 6.94L47.84 6.94Q47.91 5.12 49.06 4.14L49.06 4.14L49.06 4.14Q50.22 3.15 52.19 3.15L52.19 3.15L52.19 3.15Q53.44 3.15 54.42 3.56L54.42 3.56L54.42 3.56Q55.41 3.96 55.99 4.73L55.99 4.73L55.99 4.73Q56.56 5.50 56.59 6.55L56.59 6.55L56.59 6.55Q56.59 6.68 56.50 6.76L56.50 6.76L56.50 6.76Q56.41 6.85 56.28 6.85L56.28 6.85L54.29 6.85L54.29 6.85Q54.10 6.85 54.01 6.77L54.01 6.77L54.01 6.77Q53.91 6.69 53.84 6.48L53.84 6.48L53.84 6.48Q53.65 5.80 53.25 5.52L53.25 5.52L53.25 5.52Q52.85 5.25 52.19 5.25L52.19 5.25L52.19 5.25Q50.61 5.25 50.55 7.01L50.55 7.01L50.55 7.01Q50.54 7.39 50.54 8.18L50.54 8.18L50.54 8.18Q50.54 8.96 50.55 9.37L50.55 9.37L50.55 9.37Q50.61 11.13 52.19 11.13L52.19 11.13L52.19 11.13Q52.84 11.13 53.25 10.85L53.25 10.85L53.25 10.85Q53.66 10.57 53.84 9.90L53.84 9.90L53.84 9.90Q53.90 9.69 54.00 9.61L54.00 9.61L54.00 9.61Q54.10 9.53 54.29 9.53L54.29 9.53L56.28 9.53L56.28 9.53Q56.41 9.53 56.50 9.62L56.50 9.62L56.50 9.62Q56.59 9.70 56.59 9.83L56.59 9.83L56.59 9.83Q56.56 10.88 55.99 11.65L55.99 11.65L55.99 11.65Q55.41 12.42 54.42 12.82L54.42 12.82L54.42 12.82Q53.44 13.23 52.19 13.23L52.19 13.23ZM61.36 13.23L61.36 13.23Q59.60 13.23 58.65 12.41L58.65 12.41L58.65 12.41Q57.71 11.59 57.62 10.08L57.62 10.08L57.62 10.08Q57.61 9.90 57.61 9.45L57.61 9.45L57.61 9.45Q57.61 9.00 57.62 8.82L57.62 8.82L57.62 8.82Q57.71 7.34 58.68 6.50L58.68 6.50L58.68 6.50Q59.65 5.67 61.36 5.67L61.36 5.67L61.36 5.67Q63.07 5.67 64.04 6.50L64.04 6.50L64.04 6.50Q65.02 7.34 65.10 8.82L65.10 8.82L65.10 8.82Q65.13 9.18 65.13 9.45L65.13 9.45L65.13 9.45Q65.13 9.72 65.10 10.08L65.10 10.08L65.10 10.08Q65.02 11.59 64.07 12.41L64.07 12.41L64.07 12.41Q63.13 13.23 61.36 13.23L61.36 13.23ZM61.36 11.47L61.36 11.47Q61.94 11.47 62.22 11.11L62.22 11.11L62.22 11.11Q62.50 10.75 62.54 10.01L62.54 10.01L62.54 10.01Q62.55 9.87 62.55 9.45L62.55 9.45L62.55 9.45Q62.55 9.03 62.54 8.89L62.54 8.89L62.54 8.89Q62.50 8.16 62.22 7.80L62.22 7.80L62.22 7.80Q61.94 7.43 61.36 7.43L61.36 7.43L61.36 7.43Q60.79 7.43 60.51 7.80L60.51 7.80L60.51 7.80Q60.23 8.16 60.19 8.89L60.19 8.89L60.17 9.45L60.19 10.01L60.19 10.01Q60.23 10.75 60.51 11.11L60.51 11.11L60.51 11.11Q60.79 11.47 61.36 11.47L61.36 11.47ZM69.19 13.23L69.19 13.23Q67.83 13.23 67.05 12.38L67.05 12.38L67.05 12.38Q66.28 11.52 66.22 9.94L66.22 9.94L66.21 9.45L66.22 8.95L66.22 8.95Q66.28 7.42 67.06 6.54L67.06 6.54L67.06 6.54Q67.84 5.67 69.19 5.67L69.19 5.67L69.19 5.67Q70.45 5.67 71.22 6.48L71.22 6.48L71.22 3.50L71.22 3.50Q71.22 3.35 71.32 3.25L71.32 3.25L71.32 3.25Q71.43 3.15 71.57 3.15L71.57 3.15L73.37 3.15L73.37 3.15Q73.53 3.15 73.63 3.25L73.63 3.25L73.63 3.25Q73.74 3.35 73.74 3.50L73.74 3.50L73.74 12.74L73.74 12.74Q73.74 12.89 73.63 12.99L73.63 12.99L73.63 12.99Q73.53 13.09 73.37 13.09L73.37 13.09L71.71 13.09L71.71 13.09Q71.57 13.09 71.46 12.98L71.46 12.98L71.46 12.98Q71.36 12.88 71.36 12.74L71.36 12.74L71.36 12.31L71.36 12.31Q70.60 13.23 69.19 13.23L69.19 13.23ZM70 11.28L70 11.28Q70.60 11.28 70.90 10.90L70.90 10.90L70.90 10.90Q71.19 10.51 71.22 9.93L71.22 9.93L71.22 9.93Q71.25 9.53 71.25 9.39L71.25 9.39L71.25 9.39Q71.25 9.24 71.22 8.88L71.22 8.88L71.22 8.88Q71.19 8.33 70.89 7.97L70.89 7.97L70.89 7.97Q70.59 7.62 70 7.62L70 7.62L70 7.62Q69.37 7.62 69.10 7.99L69.10 7.99L69.10 7.99Q68.82 8.36 68.78 9.02L68.78 9.02L68.77 9.45L68.78 9.88L68.78 9.88Q68.82 10.54 69.10 10.91L69.10 10.91L69.10 10.91Q69.37 11.28 70 11.28L70 11.28ZM78.75 13.23L78.75 13.23Q77.04 13.23 76.06 12.31L76.06 12.31L76.06 12.31Q75.08 11.40 75.05 9.65L75.05 9.65L75.05 9.21L75.05 9.21Q75.11 7.55 76.09 6.61L76.09 6.61L76.09 6.61Q77.07 5.67 78.74 5.67L78.74 5.67L78.74 5.67Q79.94 5.67 80.77 6.15L80.77 6.15L80.77 6.15Q81.61 6.64 82.02 7.48L82.02 7.48L82.02 7.48Q82.43 8.33 82.43 9.41L82.43 9.41L82.43 9.76L82.43 9.76Q82.43 9.91 82.33 10.02L82.33 10.02L82.33 10.02Q82.22 10.12 82.07 10.12L82.07 10.12L77.63 10.12L77.63 10.21L77.63 10.21Q77.64 10.84 77.92 11.22L77.92 11.22L77.92 11.22Q78.20 11.61 78.72 11.61L78.72 11.61L78.72 11.61Q79.06 11.61 79.26 11.47L79.26 11.47L79.26 11.47Q79.46 11.34 79.65 11.13L79.65 11.13L79.65 11.13Q79.77 10.99 79.85 10.96L79.85 10.96L79.85 10.96Q79.93 10.92 80.09 10.92L80.09 10.92L81.93 10.92L81.93 10.92Q82.05 10.92 82.14 11.00L82.14 11.00L82.14 11.00Q82.24 11.07 82.24 11.19L82.24 11.19L82.24 11.19Q82.24 11.55 81.82 12.04L81.82 12.04L81.82 12.04Q81.41 12.53 80.62 12.88L80.62 12.88L80.62 12.88Q79.83 13.23 78.75 13.23L78.75 13.23ZM77.63 8.69L79.86 8.69L79.86 8.67L79.86 8.67Q79.86 7.99 79.56 7.62L79.56 7.62L79.56 7.62Q79.27 7.25 78.74 7.25L78.74 7.25L78.74 7.25Q78.20 7.25 77.92 7.62L77.92 7.62L77.92 7.62Q77.63 7.99 77.63 8.67L77.63 8.67L77.63 8.69ZM86.74 13.23L86.74 13.23Q85.60 13.23 84.83 12.91L84.83 12.91L84.83 12.91Q84.06 12.59 83.69 12.14L83.69 12.14L83.69 12.14Q83.31 11.69 83.31 11.33L83.31 11.33L83.31 11.33Q83.31 11.19 83.42 11.09L83.42 11.09L83.42 11.09Q83.52 11.00 83.65 11.00L83.65 11.00L85.34 11.00L85.34 11.00Q85.43 11.00 85.48 11.06L85.48 11.06L85.48 11.06Q85.72 11.21 85.75 11.24L85.75 11.24L85.75 11.24Q86.02 11.44 86.25 11.54L86.25 11.54L86.25 11.54Q86.48 11.65 86.80 11.65L86.80 11.65L86.80 11.65Q87.18 11.65 87.42 11.50L87.42 11.50L87.42 11.50Q87.67 11.35 87.67 11.09L87.67 11.09L87.67 11.09Q87.67 10.86 87.54 10.72L87.54 10.72L87.54 10.72Q87.40 10.58 87.03 10.45L87.03 10.45L87.03 10.45Q86.66 10.32 85.90 10.18L85.90 10.18L85.90 10.18Q83.48 9.69 83.48 7.94L83.48 7.94L83.48 7.94Q83.48 7.36 83.85 6.84L83.85 6.84L83.85 6.84Q84.22 6.31 84.95 5.99L84.95 5.99L84.95 5.99Q85.67 5.67 86.67 5.67L86.67 5.67L86.67 5.67Q87.70 5.67 88.45 5.98L88.45 5.98L88.45 5.98Q89.19 6.30 89.59 6.74L89.59 6.74L89.59 6.74Q89.98 7.18 89.98 7.55L89.98 7.55L89.98 7.55Q89.98 7.67 89.89 7.77L89.89 7.77L89.89 7.77Q89.80 7.87 89.67 7.87L89.67 7.87L88.13 7.87L88.13 7.87Q88.00 7.87 87.93 7.81L87.93 7.81L87.93 7.81Q87.77 7.73 87.60 7.60L87.60 7.60L87.60 7.60Q87.35 7.43 87.16 7.34L87.16 7.34L87.16 7.34Q86.97 7.25 86.67 7.25L86.67 7.25L86.67 7.25Q86.32 7.25 86.13 7.41L86.13 7.41L86.13 7.41Q85.93 7.56 85.93 7.80L85.93 7.80L85.93 7.80Q85.93 8.01 86.05 8.14L86.05 8.14L86.05 8.14Q86.17 8.27 86.54 8.40L86.54 8.40L86.54 8.40Q86.91 8.53 87.67 8.67L87.67 8.67L87.67 8.67Q89.04 8.90 89.66 9.51L89.66 9.51L89.66 9.51Q90.29 10.12 90.29 10.93L90.29 10.93L90.29 10.93Q90.29 11.98 89.36 12.61L89.36 12.61L89.36 12.61Q88.42 13.23 86.74 13.23L86.74 13.23Z"></path></g><defs data-v-29081953=""><!----></defs><g data-v-29081953="" id="1ed6b3df-ef76-4f84-affb-9a1a85e0737b" stroke="none" fill="#19CEDA" transform="matrix(0.5677011912142217,0,0,0.5677011912142217,38.0584618827352,121.61494098069096)"><path d="M92.064 55.254c3.544-3.444 4.515-7.087 4.515-10.032 0-2.169-.527-4.717-2.22-7.285a13 13 0 0 0 .416-3.27c0-4.871-2.641-11.649-15.22-16.281-7.744-2.852-18.081-4.422-29.104-4.422s-21.36 1.57-29.105 4.422C8.768 23.018 6.127 29.796 6.127 34.667c0 2.169.527 4.717 2.219 7.285-.269 1.04-.39 2.04-.411 2.976C4.391 48.372 3.42 52.014 3.42 54.96c0 2.433.659 5.341 2.885 8.22-.124.748-.179 1.47-.179 2.153 0 4.871 2.641 11.649 15.219 16.281 7.745 2.852 18.082 4.422 29.105 4.422s21.36-1.57 29.104-4.422c12.579-4.632 15.22-11.41 15.22-16.281 0-2.433-.659-5.341-2.885-8.22.108-.641.162-1.263.175-1.859zm-1.289 10.079c0 11.136-20.162 16.703-40.324 16.703-19.152 0-38.291-5.027-40.162-15.075 2.119 1.535 4.849 2.991 8.351 4.28 7.745 2.852 18.082 4.422 29.105 4.422s21.36-1.57 29.104-4.422c7.229-2.662 11.172-6.033 13.222-9.344a8.833 8.833 0 0 1 .704 3.436zM7.421 54.96c0-1.769.512-3.396 1.449-4.883.573 1.421 1.453 2.886 2.755 4.329.432.479.912.954 1.441 1.425.485.433 1.011.861 1.585 1.284 2.139 1.574 4.914 3.068 8.499 4.389 7.745 2.852 18.082 4.422 29.105 4.422s21.36-1.57 29.104-4.422c2.243-.826 4.165-1.722 5.818-2.661-4.106 8.548-21.769 12.821-39.433 12.821-15.24 0-30.474-3.184-37.006-9.546a13.049 13.049 0 0 1-1.45-1.663 10.148 10.148 0 0 1-1.164-2.059 8.85 8.85 0 0 1-.703-3.436zm2.706-20.293c0-11.135 20.162-16.703 40.324-16.703 19.762 0 39.509 5.353 40.287 16.049.016.217.037.432.037.654a9.059 9.059 0 0 1-.942 3.982c-.859 1.736-2.282 3.292-4.149 4.673-.556.411-1.153.805-1.785 1.184-.621.374-1.273.733-1.963 1.076-1.761.875-3.734 1.65-5.871 2.327a57.497 57.497 0 0 1-3.799 1.062A74.22 74.22 0 0 1 67.287 50c-5.297.912-11.065 1.37-16.835 1.37-5.77 0-11.538-.458-16.835-1.37a73.502 73.502 0 0 1-4.98-1.029 58.898 58.898 0 0 1-3.798-1.062c-3.312-1.049-6.231-2.336-8.577-3.864a20.032 20.032 0 0 1-1.805-1.31 15.473 15.473 0 0 1-1.537-1.449c-.014-.016-.031-.031-.045-.046a11.85 11.85 0 0 1-1.325-1.729 9.518 9.518 0 0 1-.994-2.156 8.749 8.749 0 0 1-.429-2.688zm82.452 10.555c0 1.769-.513 3.396-1.448 4.883-.412.655-.914 1.28-1.484 1.88-.479.504-1.01.99-1.592 1.456l-.114.087c-.505.397-1.04.783-1.614 1.152-.604.388-1.251.758-1.927 1.114-7.731 4.084-19.934 6.13-32.145 6.13-13.205 0-26.408-2.389-33.948-7.165a20.743 20.743 0 0 1-1.819-1.294 16.051 16.051 0 0 1-1.551-1.406c-1.55-1.606-2.551-3.408-2.876-5.406a8.671 8.671 0 0 1-.092-.777c.177.144.358.287.545.429 1.701 1.3 3.823 2.549 6.466 3.695.748.325 1.535.642 2.368.948.111.041.228.079.34.119 1.009.363 2.06.704 3.15 1.024 7.238 2.123 16.171 3.278 25.615 3.278s18.377-1.155 25.614-3.278c1.09-.32 2.142-.661 3.15-1.024.112-.04.229-.078.34-.119.833-.307 1.62-.624 2.368-.948a35.681 35.681 0 0 0 3.354-1.659 28.492 28.492 0 0 0 1.734-1.057 24.173 24.173 0 0 0 1.648-1.184c1.477-1.163 2.615-2.364 3.491-3.566.273.858.427 1.751.427 2.688z"></path><path d="M37.875 33.901l2.092.625 5.852 1.749 3.468 1.036a3.986 3.986 0 0 0 2.29 0l2.847-.851 5.239-1.565 3.327-.994a4 4 0 0 0 2.855-3.833v-3.067c0-.6-.143-1.172-.386-1.69a3.992 3.992 0 0 0-2.47-2.142L51.577 19.76a3.981 3.981 0 0 0-2.29 0l-11.412 3.409a3.993 3.993 0 0 0-2.683 2.7 3.989 3.989 0 0 0-.173 1.132v3.067a4.004 4.004 0 0 0 2.856 3.833zm1.146-6.574v-.326l7.877-2.353 3.535-1.056 3.141.938 7.973 2.381.3.089v3.067l-11.413 3.41-11.412-3.41v-2.74z"></path></g><defs data-v-29081953=""><!----></defs><g data-v-29081953="" id="633f3965-d116-4dcf-abba-233fc30d21b9" fill="#19CEDA" transform="matrix(0.6740444486889738,0,0,0.6740444486889738,105.12480743935267,157.24855729067343)"><path d="M1.13 2.21L1.13 11.48L7.24 11.48L7.24 10.47L2.18 10.47L2.18 2.21ZM22.41 3.22L22.41 2.21L15.60 2.21L15.60 11.48L22.41 11.48L22.41 10.47L16.65 10.47L16.65 7.35L21.80 7.35L21.80 6.33L16.65 6.33L16.65 3.22ZM37.69 2.21L30.17 2.21L30.17 3.22L33.40 3.22L33.40 11.48L34.45 11.48L34.45 3.22L37.69 3.22ZM46.79 2.21L45.54 2.21L45.81 5.28L46.52 5.28ZM56.20 4.65C56.20 4.03 56.56 3.08 58.66 3.08C60.35 3.08 61.14 3.82 61.25 4.75L62.33 4.75C62.24 3.36 61.12 2.10 58.66 2.10C56.34 2.10 55.17 3.15 55.17 4.66C55.17 7.84 61.52 6.69 61.52 8.96C61.52 10.05 60.54 10.60 58.97 10.60C57.36 10.60 56.06 10.05 55.99 8.71L54.89 8.71C55.03 10.37 56.15 11.59 58.90 11.59C61.18 11.59 62.57 10.64 62.57 8.92C62.57 5.68 56.20 6.80 56.20 4.65ZM85.15 2.10C82.36 2.10 80.58 4.21 80.58 6.85C80.58 9.48 82.29 11.59 85.12 11.59C86.80 11.59 87.89 10.74 88.48 9.84L88.48 11.48L89.45 11.48L89.45 6.55L85.09 6.55L85.09 7.50L88.48 7.50C88.48 9.44 86.88 10.57 85.20 10.57C82.95 10.57 81.63 8.93 81.63 6.85C81.63 4.76 82.98 3.12 85.23 3.12C86.65 3.12 87.65 3.74 88.21 4.73L89.36 4.73C88.68 3.18 87.14 2.10 85.15 2.10ZM105.11 3.22L105.11 2.21L98.29 2.21L98.29 11.48L105.11 11.48L105.11 10.47L99.34 10.47L99.34 7.35L104.50 7.35L104.50 6.33L99.34 6.33L99.34 3.22ZM120.39 2.21L112.87 2.21L112.87 3.22L116.10 3.22L116.10 11.48L117.15 11.48L117.15 3.22L120.39 3.22ZM142.60 2.21L138.70 2.21L138.70 11.48L142.60 11.48C144.82 11.48 146.86 9.74 146.86 6.85C146.86 3.95 144.82 2.21 142.60 2.21ZM142.56 10.49L139.75 10.49L139.75 3.21L142.56 3.21C144.54 3.21 145.81 4.86 145.81 6.85C145.81 8.83 144.54 10.49 142.56 10.49ZM156.60 2.21L155.55 2.21L155.55 11.48L156.60 11.48ZM169.85 2.10C167.06 2.10 165.28 4.21 165.28 6.85C165.28 9.48 166.99 11.59 169.82 11.59C171.50 11.59 172.59 10.74 173.18 9.84L173.18 11.48L174.15 11.48L174.15 6.55L169.79 6.55L169.79 7.50L173.18 7.50C173.18 9.44 171.58 10.57 169.90 10.57C167.65 10.57 166.33 8.93 166.33 6.85C166.33 4.76 167.68 3.12 169.93 3.12C171.35 3.12 172.35 3.74 172.91 4.73L174.06 4.73C173.38 3.18 171.84 2.10 169.85 2.10ZM184.04 2.21L182.99 2.21L182.99 11.48L184.04 11.48ZM199.89 2.21L192.37 2.21L192.37 3.22L195.61 3.22L195.61 11.48L196.66 11.48L196.66 3.22L199.89 3.22ZM211.55 2.21L210.24 2.21L206.30 11.48L207.47 11.48L208.60 8.79L213.19 8.79L214.33 11.48L215.49 11.48ZM209.01 7.83L210.90 3.30L212.79 7.83ZM223.66 2.21L223.66 11.48L229.77 11.48L229.77 10.47L224.71 10.47L224.71 2.21Z"></path></g></svg>