<svg data-v-d3f97b9e="" xmlns="http://www.w3.org/2000/svg" viewBox="0 0 77.55495007156527 60"><!----><!----><!----><!----><g data-v-d3f97b9e="" id="7223db26-e759-448b-bc60-6239a047033c" transform="matrix(0.8325008487161706,0,0,0.8325008487161706,-2.8471526448510502,-11.625042595548166)" stroke="none" fill="white"><path d="M92.064 55.254c3.544-3.444 4.515-7.087 4.515-10.032 0-2.169-.527-4.717-2.22-7.285a13 13 0 0 0 .416-3.27c0-4.871-2.641-11.649-15.22-16.281-7.744-2.852-18.081-4.422-29.104-4.422s-21.36 1.57-29.105 4.422C8.768 23.018 6.127 29.796 6.127 34.667c0 2.169.527 4.717 2.219 7.285-.269 1.04-.39 2.04-.411 2.976C4.391 48.372 3.42 52.014 3.42 54.96c0 2.433.659 5.341 2.885 8.22-.124.748-.179 1.47-.179 2.153 0 4.871 2.641 11.649 15.219 16.281 7.745 2.852 18.082 4.422 29.105 4.422s21.36-1.57 29.104-4.422c12.579-4.632 15.22-11.41 15.22-16.281 0-2.433-.659-5.341-2.885-8.22.108-.641.162-1.263.175-1.859zm-1.289 10.079c0 11.136-20.162 16.703-40.324 16.703-19.152 0-38.291-5.027-40.162-15.075 2.119 1.535 4.849 2.991 8.351 4.28 7.745 2.852 18.082 4.422 29.105 4.422s21.36-1.57 29.104-4.422c7.229-2.662 11.172-6.033 13.222-9.344a8.833 8.833 0 0 1 .704 3.436zM7.421 54.96c0-1.769.512-3.396 1.449-4.883.573 1.421 1.453 2.886 2.755 4.329.432.479.912.954 1.441 1.425.485.433 1.011.861 1.585 1.284 2.139 1.574 4.914 3.068 8.499 4.389 7.745 2.852 18.082 4.422 29.105 4.422s21.36-1.57 29.104-4.422c2.243-.826 4.165-1.722 5.818-2.661-4.106 8.548-21.769 12.821-39.433 12.821-15.24 0-30.474-3.184-37.006-9.546a13.049 13.049 0 0 1-1.45-1.663 10.148 10.148 0 0 1-1.164-2.059 8.85 8.85 0 0 1-.703-3.436zm2.706-20.293c0-11.135 20.162-16.703 40.324-16.703 19.762 0 39.509 5.353 40.287 16.049.016.217.037.432.037.654a9.059 9.059 0 0 1-.942 3.982c-.859 1.736-2.282 3.292-4.149 4.673-.556.411-1.153.805-1.785 1.184-.621.374-1.273.733-1.963 1.076-1.761.875-3.734 1.65-5.871 2.327a57.497 57.497 0 0 1-3.799 1.062A74.22 74.22 0 0 1 67.287 50c-5.297.912-11.065 1.37-16.835 1.37-5.77 0-11.538-.458-16.835-1.37a73.502 73.502 0 0 1-4.98-1.029 58.898 58.898 0 0 1-3.798-1.062c-3.312-1.049-6.231-2.336-8.577-3.864a20.032 20.032 0 0 1-1.805-1.31 15.473 15.473 0 0 1-1.537-1.449c-.014-.016-.031-.031-.045-.046a11.85 11.85 0 0 1-1.325-1.729 9.518 9.518 0 0 1-.994-2.156 8.749 8.749 0 0 1-.429-2.688zm82.452 10.555c0 1.769-.513 3.396-1.448 4.883-.412.655-.914 1.28-1.484 1.88-.479.504-1.01.99-1.592 1.456l-.114.087c-.505.397-1.04.783-1.614 1.152-.604.388-1.251.758-1.927 1.114-7.731 4.084-19.934 6.13-32.145 6.13-13.205 0-26.408-2.389-33.948-7.165a20.743 20.743 0 0 1-1.819-1.294 16.051 16.051 0 0 1-1.551-1.406c-1.55-1.606-2.551-3.408-2.876-5.406a8.671 8.671 0 0 1-.092-.777c.177.144.358.287.545.429 1.701 1.3 3.823 2.549 6.466 3.695.748.325 1.535.642 2.368.948.111.041.228.079.34.119 1.009.363 2.06.704 3.15 1.024 7.238 2.123 16.171 3.278 25.615 3.278s18.377-1.155 25.614-3.278c1.09-.32 2.142-.661 3.15-1.024.112-.04.229-.078.34-.119.833-.307 1.62-.624 2.368-.948a35.681 35.681 0 0 0 3.354-1.659 28.492 28.492 0 0 0 1.734-1.057 24.173 24.173 0 0 0 1.648-1.184c1.477-1.163 2.615-2.364 3.491-3.566.273.858.427 1.751.427 2.688z"></path><path d="M37.875 33.901l2.092.625 5.852 1.749 3.468 1.036a3.986 3.986 0 0 0 2.29 0l2.847-.851 5.239-1.565 3.327-.994a4 4 0 0 0 2.855-3.833v-3.067c0-.6-.143-1.172-.386-1.69a3.992 3.992 0 0 0-2.47-2.142L51.577 19.76a3.981 3.981 0 0 0-2.29 0l-11.412 3.409a3.993 3.993 0 0 0-2.683 2.7 3.989 3.989 0 0 0-.173 1.132v3.067a4.004 4.004 0 0 0 2.856 3.833zm1.146-6.574v-.326l7.877-2.353 3.535-1.056 3.141.938 7.973 2.381.3.089v3.067l-11.413 3.41-11.412-3.41v-2.74z"></path></g><!----></svg>